<svg xmlns="http://www.w3.org/2000/svg" width="600" height="600" viewBox="0 0 600 600">
  <defs>
    <linearGradient id="bg" x1="0" y1="0" x2="1" y2="1">
      <stop offset="0%" stop-color="#121215"/>
      <stop offset="100%" stop-color="#1c1c22"/>
    </linearGradient>
    <radialGradient id="glow" cx="50%" cy="45%" r="45%">
      <stop offset="0%" stop-color="#C9A84C" stop-opacity="0.12"/>
      <stop offset="100%" stop-color="transparent" stop-opacity="0"/>
    </radialGradient>
  </defs>
  <rect width="600" height="600" fill="url(#bg)"/>
  <rect width="600" height="600" fill="url(#glow)"/>
  <g transform="translate(300,290)" fill="none" stroke="#C9A84C" stroke-width="3" stroke-linecap="round" stroke-linejoin="round" opacity="0.6">
    <!-- Baseball cap -->
    <path d="M-110,25 Q-120,60 -90,65 Q0,85 90,65 Q120,60 110,25"/>
    <path d="M-110,25 Q-120,-40 -90,-85 Q-50,-125 0,-135 Q50,-125 90,-85 Q120,-40 110,25"/>
    <path d="M0,-135 L0,25" stroke-opacity="0.2"/>
    <circle cx="0" cy="-135" r="6" stroke-opacity="0.4"/>
    <path d="M-110,15 Q0,35 110,15" stroke-opacity="0.4"/>
  </g>
  <text x="300" y="530" text-anchor="middle" fill="#C9A84C" font-family="Arial,sans-serif" font-size="16" font-weight="bold" opacity="0.25" letter-spacing="8">HATS</text>
</svg>