<svg xmlns="http://www.w3.org/2000/svg" width="600" height="800" viewBox="0 0 600 800">
  <defs>
    <linearGradient id="bg" x1="0" y1="0" x2="1" y2="1">
      <stop offset="0%" stop-color="#0d2128"/>
      <stop offset="100%" stop-color="#132e2a"/>
    </linearGradient>
    <radialGradient id="glow" cx="50%" cy="42%" r="40%">
      <stop offset="0%" stop-color="#1ABC9C" stop-opacity="0.1"/>
      <stop offset="100%" stop-color="transparent" stop-opacity="0"/>
    </radialGradient>
  </defs>
  <rect width="600" height="800" fill="url(#bg)"/>
  <rect width="600" height="800" fill="url(#glow)"/>
  <!-- Premium Crew Neck -->
  <g transform="translate(300,370)" fill="none" stroke="#C9A84C" stroke-width="2.5" stroke-linecap="round" stroke-linejoin="round" opacity="0.7">
    <path d="M-90,-115 L-135,-85 L-108,-28 L-70,-48 L-68,125 L68,125 L70,-48 L108,-28 L135,-85 L90,-115 C70,-142 28,-152 0,-152 C-28,-152 -70,-142 -90,-115 Z"/>
    <!-- Crew neck circle -->
    <ellipse cx="0" cy="-140" rx="28" ry="14" stroke-opacity="0.6"/>
    <!-- Premium stitch detail -->
    <path d="M-68,120 L68,120" stroke-opacity="0.3"/>
    <path d="M-65,110 L65,110" stroke-opacity="0.15" stroke-dasharray="3 3"/>
  </g>
  <!-- Premium diamond -->
  <g transform="translate(300,580)" fill="none" stroke="#C9A84C" stroke-width="1" opacity="0.2">
    <polygon points="0,-15 12,0 0,15 -12,0"/>
  </g>
  <text x="300" y="720" text-anchor="middle" fill="#C9A84C" font-family="Arial,sans-serif" font-size="14" font-weight="bold" opacity="0.3" letter-spacing="6">Z7SHOP</text>
</svg>