<svg xmlns="http://www.w3.org/2000/svg" width="600" height="800" viewBox="0 0 600 800">
  <defs>
    <linearGradient id="bg" x1="0" y1="0" x2="1" y2="1">
      <stop offset="0%" stop-color="#200c0c"/>
      <stop offset="100%" stop-color="#2a1515"/>
    </linearGradient>
    <radialGradient id="glow" cx="50%" cy="42%" r="40%">
      <stop offset="0%" stop-color="#FF6347" stop-opacity="0.1"/>
      <stop offset="100%" stop-color="transparent" stop-opacity="0"/>
    </radialGradient>
  </defs>
  <rect width="600" height="800" fill="url(#bg)"/>
  <rect width="600" height="800" fill="url(#glow)"/>
  <!-- Dry-Fit Sports T-Shirt -->
  <g transform="translate(300,370)" fill="none" stroke="#C9A84C" stroke-width="2.5" stroke-linecap="round" stroke-linejoin="round" opacity="0.7">
    <path d="M-85,-120 L-130,-90 L-105,-30 L-65,-48 L-65,125 L65,125 L65,-48 L105,-30 L130,-90 L85,-120 C65,-145 25,-155 0,-155 C-25,-155 -65,-145 -85,-120 Z"/>
    <path d="M-18,-155 C-8,-138 8,-138 18,-155" stroke-opacity="0.5"/>
    <!-- Mesh/ventilation dots pattern -->
    <g stroke-opacity="0.15">
      <circle cx="-30" cy="0" r="2"/><circle cx="-10" cy="0" r="2"/><circle cx="10" cy="0" r="2"/><circle cx="30" cy="0" r="2"/>
      <circle cx="-20" cy="20" r="2"/><circle cx="0" cy="20" r="2"/><circle cx="20" cy="20" r="2"/>
      <circle cx="-30" cy="40" r="2"/><circle cx="-10" cy="40" r="2"/><circle cx="10" cy="40" r="2"/><circle cx="30" cy="40" r="2"/>
      <circle cx="-20" cy="60" r="2"/><circle cx="0" cy="60" r="2"/><circle cx="20" cy="60" r="2"/>
    </g>
    <!-- Side ventilation -->
    <path d="M-65,40 L-65,80" stroke-opacity="0.2" stroke-dasharray="4 4"/>
    <path d="M65,40 L65,80" stroke-opacity="0.2" stroke-dasharray="4 4"/>
  </g>
  <text x="300" y="720" text-anchor="middle" fill="#C9A84C" font-family="Arial,sans-serif" font-size="14" font-weight="bold" opacity="0.3" letter-spacing="6">Z7SHOP</text>
</svg>