<svg xmlns="http://www.w3.org/2000/svg" width="600" height="800" viewBox="0 0 600 800">
  <defs>
    <linearGradient id="bg" x1="0" y1="0" x2="1" y2="1">
      <stop offset="0%" stop-color="#0e1a12"/>
      <stop offset="100%" stop-color="#152218"/>
    </linearGradient>
    <radialGradient id="glow" cx="50%" cy="42%" r="40%">
      <stop offset="0%" stop-color="#2ECC71" stop-opacity="0.1"/>
      <stop offset="100%" stop-color="transparent" stop-opacity="0"/>
    </radialGradient>
  </defs>
  <rect width="600" height="800" fill="url(#bg)"/>
  <rect width="600" height="800" fill="url(#glow)"/>
  <!-- Sports Shorts -->
  <g transform="translate(300,370)" fill="none" stroke="#C9A84C" stroke-width="2.5" stroke-linecap="round" stroke-linejoin="round" opacity="0.7">
    <path d="M-70,-60 L-80,-60 L-88,10 L-100,90 L-35,90 L-8,-10 L0,0 L8,-10 L35,90 L100,90 L88,10 L80,-60 L70,-60"/>
    <!-- Elastic waistband -->
    <path d="M-80,-60 L80,-60" stroke-opacity="0.6"/>
    <path d="M-78,-52 L78,-52" stroke-opacity="0.3" stroke-dasharray="4 3"/>
    <!-- Drawstring -->
    <path d="M-12,-58 L-18,-38" stroke-opacity="0.4"/>
    <path d="M12,-58 L18,-38" stroke-opacity="0.4"/>
    <!-- Side stripes -->
    <path d="M-88,10 L-95,90" stroke="#C9A84C" stroke-opacity="0.25" stroke-width="6"/>
    <path d="M88,10 L95,90" stroke="#C9A84C" stroke-opacity="0.25" stroke-width="6"/>
    <!-- Side pocket -->
    <path d="M-82,-30 L-65,-25 L-60,5" stroke-opacity="0.3"/>
  </g>
  <text x="300" y="720" text-anchor="middle" fill="#C9A84C" font-family="Arial,sans-serif" font-size="14" font-weight="bold" opacity="0.3" letter-spacing="6">Z7SHOP</text>
</svg>